<?xml version="1.0"?>
<svg xmlns:rdf="http://www.w3.org/1999/02/22-rdf-syntax-ns#" xmlns="http://www.w3.org/2000/svg" xmlns:cc="http://web.resource.org/cc/" xmlns:xlink="http://www.w3.org/1999/xlink" xmlns:dc="http://purl.org/dc/elements/1.1/" viewBox="0 0 175 175">
  <g id="imagebot_2" label="icon">
    <g id="imagebot_3" label="icon" transform="translate(2.5911 2.6482) matrix(1.3703 0 0 1.3703 -350.25 -244.89)">
      <path id="imagebot_26" stroke-linejoin="round" d="m260.1 178.72c-2.53 0.23-4.5 2.19-4.5 4.56v113.89c0 2.52 2.23 4.55 5 4.55h90c2.77 0 5-2.03 5-4.55v-95.09l-23.44-23.36h-71.56c-0.18 0-0.33-0.02-0.5 0z" stroke="#000" stroke-width="1.5" fill="#fff"/>
      <path id="imagebot_25" stroke-linejoin="round" d="m332.21 178.71v18.37c0 2.77 2.23 5 5 5h18.4l-23.4-23.37z" stroke="#000" stroke-width="1.5" fill="#fff"/>
      <path id="imagebot_24" stroke-linejoin="round" d="m332.21 178.71v18.37c0 2.77 2.23 5 5 5h18.4l-23.4-23.37z" stroke="#000" stroke-width="1.5" fill="#fff"/>
      <rect id="imagebot_21" stroke-linejoin="round" rx="2" ry="2" height="10" width="10" stroke="#000" y="200.21" x="262.61" stroke-width="1.5" fill="#fff"/>
      <use id="imagebot_23" xlink:href="#imagebot_21" transform="translate(5.0448e-7 20)" height="180" width="180" y="0" x="0"/>
      <use id="imagebot_22" xlink:href="#imagebot_21" transform="translate(5.0448e-7 40)" height="180" width="180" y="0" x="0"/>
      <use id="imagebot_20" xlink:href="#imagebot_21" transform="translate(5.0448e-7 60)" height="180" width="180" y="0" x="0"/>
      <path id="imagebot_17" d="m279.6 205.22h29" fill-rule="evenodd" stroke="#000" stroke-width="3" fill="none"/>
      <use id="imagebot_19" xlink:href="#imagebot_17" transform="translate(5.0448e-7 20)" height="180" width="180" y="0" x="0"/>
      <use id="imagebot_18" xlink:href="#imagebot_17" transform="translate(5.0448e-7 40)" height="180" width="180" y="0" x="0"/>
      <use id="imagebot_16" xlink:href="#imagebot_17" transform="translate(5.0448e-7 60)" height="180" width="180" y="0" x="0"/>
      <path id="imagebot_15" stroke-linejoin="round" stroke-width="3" fill="#f00" d="m264.25 198.26c0.39 0.71 0.03 0.03 0.52 0.98 0.13 0.26 0.29 0.52 0.41 0.78 0.52 1.14 0.88 2.36 1.28 3.55 0.31 0.67 0.68 2.5 1.24 3 0.14 0.11 0.35 0.15 0.52 0.1 0.26-0.07 0.95-0.47 0.67-0.46-0.46 0.01-0.86 0.32-1.29 0.48 2.79-2.38 5.57-4.79 8.59-6.87 1.95-1.35 3.06-1.97 5.07-3.16 4.88-2.75 2.81-1.65 6.17-3.4l-2 1.61c-1.87 0.95-1.15 0.81-2 0.95-1.98 1.16-3.23 1.85-5.14 3.16-2.9 1.99-5.55 4.31-8.14 6.68-1.18 0.79-2.33 1.64-3.55 2.38-0.26 0.16-0.57 0.32-0.89 0.31-0.56 0-0.81-0.79-0.94-1.13-0.29-0.75-0.45-1.56-0.75-2.3-0.63-1.78-1.24-3.61-2.48-5.08l2.71-1.58z"/>
      <use id="imagebot_14" xlink:href="#imagebot_15" transform="translate(5.0448e-7 20)" height="180" width="180" y="0" x="0"/>
      <g id="imagebot_4" transform="matrix(.97525 -.22111 .22111 .97525 145.67 216.37)">
        <path id="imagebot_13" fill-rule="evenodd" d="m156.39 104.43l-0.72-1.34-5.67 2.13-0.05 0.07 6.44-0.86z" stroke-width="1px" fill="#a00"/>
        <rect id="imagebot_12" transform="rotate(241.46)" height="60" width="4.4545" y="99.324" x="-171.01" fill="#a00"/>
        <rect id="imagebot_11" transform="rotate(241.46)" height="60" width="4.4545" y="99.324" x="-166.56" fill="#d40000"/>
        <rect id="imagebot_10" transform="rotate(241.46)" height="60" width="4.4545" y="99.324" x="-162.1" fill="#ff2a2a"/>
        <path id="imagebot_9" fill-rule="evenodd" d="m155.67 103.09l11.27-4.224 0.07 0.048-2.15-4.105-0.01 0.051-9.91 6.9 0.73 1.33z" stroke-width="1px" fill="#ffd42a"/>
        <path id="imagebot_8" fill-rule="evenodd" d="m155.67 103.09l-0.73-1.33-4.94 3.46 5.67-2.13z" stroke-width="1px" fill="#d40000"/>
        <path id="imagebot_7" fill-rule="evenodd" d="m154.94 101.76l-0.69-1.27-4.25 4.73 4.94-3.46z" stroke-width="1px" fill="#ff2a2a"/>
        <path id="imagebot_6" fill-rule="evenodd" d="m154.94 101.76l9.91-6.9 0.01-0.051-2.05-3.854-8.56 9.535 0.69 1.27z" stroke-width="1px" fill="#fd5"/>
        <path id="imagebot_5" fill-rule="evenodd" d="m156.39 104.43l12.67-1.66-2.05-3.856-0.07-0.048-11.27 4.224 0.72 1.34z" stroke-width="1px" fill="#fc0"/>
      </g>
    </g>
    <title>icon</title>
  </g>
  <metadata>
    <rdf:RDF>
      <cc:Work>
        <dc:format>image/svg+xml</dc:format>
        <dc:type rdf:resource="http://purl.org/dc/dcmitype/StillImage"/>
        <cc:license rdf:resource="http://creativecommons.org/licenses/publicdomain/"/>
        <dc:publisher>
          <cc:Agent rdf:about="http://openclipart.org/">
            <dc:title>Openclipart</dc:title>
          </cc:Agent>
        </dc:publisher>
      </cc:Work>
      <cc:License rdf:about="http://creativecommons.org/licenses/publicdomain/">
        <cc:permits rdf:resource="http://creativecommons.org/ns#Reproduction"/>
        <cc:permits rdf:resource="http://creativecommons.org/ns#Distribution"/>
        <cc:permits rdf:resource="http://creativecommons.org/ns#DerivativeWorks"/>
      </cc:License>
    </rdf:RDF>
  </metadata>
</svg>
