<?xml version="1.0"?>
<svg xmlns:rdf="http://www.w3.org/1999/02/22-rdf-syntax-ns#" xmlns="http://www.w3.org/2000/svg" xmlns:cc="http://creativecommons.org/ns#" xmlns:xlink="http://www.w3.org/1999/xlink" xmlns:dc="http://purl.org/dc/elements/1.1/" id="svg5771" viewBox="0 0 369.19 50.868" version="1.1">
  <title id="title6291">ruler</title>
  <g id="layer1" transform="translate(0 -1001.7)">
    <g id="g87495">
      <use id="use86739" xlink:href="#use86717" transform="translate(354.33)" height="35.433071" width="354.33069" y="0" x="0"/>
      <g id="g87365">
        <path id="path5777" stroke="#000" stroke-width=".35259" fill="none" d="m0.1763 1017.3v35.082"/>
        <use id="use86519" xlink:href="#path5777" height="35.433071" width="354.33069" y="0" x="0" stroke-width=".35433"/>
        <use id="use86521" xlink:href="#path5777" height="35.433071" width="354.33069" y="0" x="0" stroke-width=".35433"/>
        <use id="use86523" xlink:href="#path5777" height="35.433071" width="354.33069" y="0" x="0" stroke-width=".35433"/>
        <use id="use86525" xlink:href="#path5777" height="35.433071" width="354.33069" y="0" x="0" stroke-width=".35433"/>
        <use id="use86527" xlink:href="#path5777" height="35.433071" width="354.33069" y="0" x="0" stroke-width=".35433"/>
        <use id="use86529" xlink:href="#path5777" height="35.433071" width="354.33069" y="0" x="0" stroke-width=".35433"/>
        <use id="use86531" xlink:href="#path5777" height="35.433071" width="354.33069" y="0" x="0" stroke-width=".35433"/>
        <use id="use86533" xlink:href="#path5777" height="35.433071" width="354.33069" y="0" x="0" stroke-width=".35433"/>
        <use id="use86535" xlink:href="#path5777" height="35.433071" width="354.33069" y="0" x="0" stroke-width=".35433"/>
        <use id="use86537" xlink:href="#path5777" height="35.433071" width="354.33069" y="0" x="0" stroke-width=".35433"/>
        <use id="use86539" xlink:href="#path5777" height="35.433071" width="354.33069" y="0" x="0" stroke-width=".35433"/>
        <use id="use86541" xlink:href="#path5777" height="35.433071" width="354.33069" y="0" x="0" stroke-width=".35433"/>
        <use id="use86543" xlink:href="#path5777" height="35.433071" width="354.33069" y="0" x="0" stroke-width=".35433"/>
        <use id="use86545" xlink:href="#path5777" height="35.433071" width="354.33069" y="0" x="0" stroke-width=".35433"/>
        <use id="use86547" xlink:href="#path5777" height="35.433071" width="354.33069" y="0" x="0" stroke-width=".35433"/>
        <use id="use86549" xlink:href="#path5777" height="35.433071" width="354.33069" y="0" x="0" stroke-width=".35433"/>
        <use id="use86551" xlink:href="#path5777" height="35.433071" width="354.33069" y="0" x="0" stroke-width=".35433"/>
        <use id="use86553" xlink:href="#path5777" height="35.433071" width="354.33069" y="0" x="0" stroke-width=".35433"/>
        <use id="use86555" xlink:href="#path5777" height="35.433071" width="354.33069" y="0" x="0" stroke-width=".35433"/>
        <use id="use86557" xlink:href="#path5777" height="35.433071" width="354.33069" y="0" x="0" stroke-width=".35433"/>
        <use id="use86559" xlink:href="#path5777" height="35.433071" width="354.33069" y="0" x="0" stroke-width=".35433"/>
        <use id="use86561" xlink:href="#path5777" height="35.433071" width="354.33069" y="0" x="0" stroke-width=".35433"/>
        <use id="use86563" xlink:href="#path5777" height="35.433071" width="354.33069" y="0" x="0" stroke-width=".35433"/>
        <use id="use86565" xlink:href="#path5777" height="35.433071" width="354.33069" y="0" x="0" stroke-width=".35433"/>
        <use id="use86567" xlink:href="#path5777" height="35.433071" width="354.33069" y="0" x="0" stroke-width=".35433"/>
        <use id="use86569" xlink:href="#path5777" height="35.433071" width="354.33069" y="0" x="0" stroke-width=".35433"/>
        <use id="use86571" xlink:href="#path5777" height="35.433071" width="354.33069" y="0" x="0" stroke-width=".35433"/>
        <use id="use86573" xlink:href="#path5777" height="35.433071" width="354.33069" y="0" x="0" stroke-width=".35433"/>
        <use id="use86575" xlink:href="#path5777" height="35.433071" width="354.33069" y="0" x="0" stroke-width=".35433"/>
        <use id="use86577" xlink:href="#path5777" height="35.433071" width="354.33069" y="0" x="0" stroke-width=".35433"/>
        <use id="use86579" xlink:href="#path5777" height="35.433071" width="354.33069" y="0" x="0" stroke-width=".35433"/>
        <use id="use86581" xlink:href="#path5777" height="35.433071" width="354.33069" y="0" x="0" stroke-width=".35433"/>
        <use id="use86583" xlink:href="#path5777" height="35.433071" width="354.33069" y="0" x="0" stroke-width=".35433"/>
        <use id="use86585" xlink:href="#path5777" height="35.433071" width="354.33069" y="0" x="0" stroke-width=".35433"/>
        <use id="use86587" xlink:href="#path5777" height="35.433071" width="354.33069" y="0" x="0" stroke-width=".35433"/>
        <use id="use86589" xlink:href="#path5777" height="35.433071" width="354.33069" y="0" x="0" stroke-width=".35433"/>
        <use id="use86591" xlink:href="#path5777" height="35.433071" width="354.33069" y="0" x="0" stroke-width=".35433"/>
        <use id="use86593" xlink:href="#path5777" height="35.433071" width="354.33069" y="0" x="0" stroke-width=".35433"/>
        <use id="use86595" xlink:href="#path5777" height="35.433071" width="354.33069" y="0" x="0" stroke-width=".35433"/>
        <use id="use86597" xlink:href="#path5777" height="35.433071" width="354.33069" y="0" x="0" stroke-width=".35433"/>
        <use id="use86599" xlink:href="#path5777" height="35.433071" width="354.33069" y="0" x="0" stroke-width=".35433"/>
        <use id="use86601" xlink:href="#path5777" height="35.433071" width="354.33069" y="0" x="0" stroke-width=".35433"/>
        <use id="use86603" xlink:href="#path5777" height="35.433071" width="354.33069" y="0" x="0" stroke-width=".35433"/>
        <use id="use86605" xlink:href="#path5777" height="35.433071" width="354.33069" y="0" x="0" stroke-width=".35433"/>
        <use id="use86607" xlink:href="#path5777" height="35.433071" width="354.33069" y="0" x="0" stroke-width=".35433"/>
        <use id="use86609" xlink:href="#path5777" height="35.433071" width="354.33069" y="0" x="0" stroke-width=".35433"/>
        <use id="use86611" xlink:href="#path5777" height="35.433071" width="354.33069" y="0" x="0" stroke-width=".35433"/>
        <use id="use86613" xlink:href="#path5777" height="35.433071" width="354.33069" y="0" x="0" stroke-width=".35433"/>
        <use id="use86615" xlink:href="#path5777" height="35.433071" width="354.33069" y="0" x="0" stroke-width=".35433"/>
        <use id="use86617" xlink:href="#path5777" height="35.433071" width="354.33069" y="0" x="0" stroke-width=".35433"/>
        <use id="use86619" xlink:href="#path5777" height="35.433071" width="354.33069" y="0" x="0" stroke-width=".35433"/>
        <use id="use86621" xlink:href="#path5777" height="35.433071" width="354.33069" y="0" x="0" stroke-width=".35433"/>
        <use id="use86623" xlink:href="#path5777" height="35.433071" width="354.33069" y="0" x="0" stroke-width=".35433"/>
        <use id="use86625" xlink:href="#path5777" height="35.433071" width="354.33069" y="0" x="0" stroke-width=".35433"/>
        <use id="use86627" xlink:href="#path5777" height="35.433071" width="354.33069" y="0" x="0" stroke-width=".35433"/>
        <use id="use86629" xlink:href="#path5777" height="35.433071" width="354.33069" y="0" x="0" stroke-width=".35433"/>
        <use id="use86631" xlink:href="#path5777" height="35.433071" width="354.33069" y="0" x="0" stroke-width=".35433"/>
        <use id="use86633" xlink:href="#path5777" height="35.433071" width="354.33069" y="0" x="0" stroke-width=".35433"/>
        <use id="use86635" xlink:href="#path5777" height="35.433071" width="354.33069" y="0" x="0" stroke-width=".35433"/>
        <use id="use86637" xlink:href="#path5777" height="35.433071" width="354.33069" y="0" x="0" stroke-width=".35433"/>
        <use id="use86639" xlink:href="#path5777" height="35.433071" width="354.33069" y="0" x="0" stroke-width=".35433"/>
        <use id="use86641" xlink:href="#path5777" height="35.433071" width="354.33069" y="0" x="0" stroke-width=".35433"/>
        <use id="use86643" xlink:href="#path5777" height="35.433071" width="354.33069" y="0" x="0" stroke-width=".35433"/>
        <use id="use86645" xlink:href="#path5777" height="35.433071" width="354.33069" y="0" x="0" stroke-width=".35433"/>
        <use id="use86647" xlink:href="#path5777" height="35.433071" width="354.33069" y="0" x="0" stroke-width=".35433"/>
        <use id="use86649" xlink:href="#path5777" height="35.433071" width="354.33069" y="0" x="0" stroke-width=".35433"/>
        <use id="use86651" xlink:href="#path5777" height="35.433071" width="354.33069" y="0" x="0" stroke-width=".35433"/>
        <use id="use86653" xlink:href="#path5777" height="35.433071" width="354.33069" y="0" x="0" stroke-width=".35433"/>
        <use id="use86655" xlink:href="#path5777" height="35.433071" width="354.33069" y="0" x="0" stroke-width=".35433"/>
        <use id="use86657" xlink:href="#path5777" height="35.433071" width="354.33069" y="0" x="0" stroke-width=".35433"/>
        <use id="use86659" xlink:href="#path5777" height="35.433071" width="354.33069" y="0" x="0" stroke-width=".35433"/>
        <use id="use86661" xlink:href="#path5777" height="35.433071" width="354.33069" y="0" x="0" stroke-width=".35433"/>
        <use id="use86663" xlink:href="#path5777" height="35.433071" width="354.33069" y="0" x="0" stroke-width=".35433"/>
        <use id="use86665" xlink:href="#path5777" height="35.433071" width="354.33069" y="0" x="0" stroke-width=".35433"/>
        <use id="use86667" xlink:href="#path5777" height="35.433071" width="354.33069" y="0" x="0" stroke-width=".35433"/>
        <use id="use86669" xlink:href="#path5777" height="35.433071" width="354.33069" y="0" x="0" stroke-width=".35433"/>
        <use id="use86671" xlink:href="#path5777" height="35.433071" width="354.33069" y="0" x="0" stroke-width=".35433"/>
        <use id="use86673" xlink:href="#path5777" height="35.433071" width="354.33069" y="0" x="0" stroke-width=".35433"/>
        <use id="use86675" xlink:href="#path5777" height="35.433071" width="354.33069" y="0" x="0" stroke-width=".35433"/>
        <use id="use86677" xlink:href="#path5777" height="35.433071" width="354.33069" y="0" x="0" stroke-width=".35433"/>
        <use id="use86679" xlink:href="#path5777" height="35.433071" width="354.33069" y="0" x="0" stroke-width=".35433"/>
        <use id="use86681" xlink:href="#path5777" height="35.433071" width="354.33069" y="0" x="0" stroke-width=".35433"/>
        <use id="use86683" xlink:href="#path5777" height="35.433071" width="354.33069" y="0" x="0" stroke-width=".35433"/>
        <use id="use86685" xlink:href="#path5777" height="35.433071" width="354.33069" y="0" x="0" stroke-width=".35433"/>
        <use id="use86687" xlink:href="#path5777" height="35.433071" width="354.33069" y="0" x="0" stroke-width=".35433"/>
        <use id="use86689" xlink:href="#path5777" height="35.433071" width="354.33069" y="0" x="0" stroke-width=".35433"/>
        <use id="use86691" xlink:href="#path5777" height="35.433071" width="354.33069" y="0" x="0" stroke-width=".35433"/>
        <use id="use86693" xlink:href="#path5777" height="35.433071" width="354.33069" y="0" x="0" stroke-width=".35433"/>
        <use id="use86695" xlink:href="#path5777" height="35.433071" width="354.33069" y="0" x="0" stroke-width=".35433"/>
        <use id="use86697" xlink:href="#path5777" height="35.433071" width="354.33069" y="0" x="0" stroke-width=".35433"/>
        <use id="use86699" xlink:href="#path5777" height="35.433071" width="354.33069" y="0" x="0" stroke-width=".35433"/>
        <use id="use86701" xlink:href="#path5777" height="35.433071" width="354.33069" y="0" x="0" stroke-width=".35433"/>
        <use id="use86703" xlink:href="#path5777" height="35.433071" width="354.33069" y="0" x="0" stroke-width=".35433"/>
        <use id="use86705" xlink:href="#path5777" height="35.433071" width="354.33069" y="0" x="0" stroke-width=".35433"/>
        <use id="use86707" xlink:href="#path5777" height="35.433071" width="354.33069" y="0" x="0" stroke-width=".35433"/>
        <use id="use86709" xlink:href="#path5777" height="35.433071" width="354.33069" y="0" x="0" stroke-width=".35433"/>
        <use id="use86711" xlink:href="#path5777" height="35.433071" width="354.33069" y="0" x="0" stroke-width=".35433"/>
        <use id="use86713" xlink:href="#path5777" height="35.433071" width="354.33069" y="0" x="0" stroke-width=".35433"/>
        <use id="use86715" xlink:href="#path5777" height="35.433071" width="354.33069" y="0" x="0" stroke-width=".35433"/>
        <use id="use86717" xlink:href="#path5777" height="35.433071" width="354.33069" y="0" x="0" stroke-width=".35433"/>
        <use id="use87347" xlink:href="#use86717" transform="matrix(.36454 0 0 .75134 17.692 261.7)" height="35.433071" width="354.33069" y="0" x="0"/>
        <use id="use87349" xlink:href="#use86717" transform="matrix(.75566 0 0 .34823 3.5005 685.81)" height="35.433071" width="354.33069" y="0" x="0"/>
        <use id="use87351" xlink:href="#use86717" transform="matrix(.75566 0 0 .34823 7.0438 685.81)" height="35.433071" width="354.33069" y="0" x="0"/>
        <use id="use87353" xlink:href="#use86717" transform="matrix(.75566 0 0 .34823 10.587 685.81)" height="35.433071" width="354.33069" y="0" x="0"/>
        <use id="use87355" xlink:href="#use86717" transform="matrix(.75566 0 0 .34823 14.13 685.81)" height="35.433071" width="354.33069" y="0" x="0"/>
        <use id="use87357" xlink:href="#use86717" transform="matrix(.75566 0 0 .34823 21.217 685.81)" height="35.433071" width="354.33069" y="0" x="0"/>
        <use id="use87359" xlink:href="#use86717" transform="matrix(.75566 0 0 .34823 24.76 685.81)" height="35.433071" width="354.33069" y="0" x="0"/>
        <use id="use87361" xlink:href="#use86717" transform="matrix(.75566 0 0 .34823 28.304 685.81)" height="35.433071" width="354.33069" y="0" x="0"/>
        <use id="use87363" xlink:href="#use86717" transform="matrix(.75566 0 0 .34823 31.847 685.81)" height="35.433071" width="354.33069" y="0" x="0"/>
      </g>
      <use id="use87477" xlink:href="#g87365" transform="translate(35.433)" height="35.433071" width="354.33069" y="0" x="0"/>
      <use id="use87479" xlink:href="#g87365" transform="translate(70.866)" height="35.433071" width="354.33069" y="0" x="0"/>
      <use id="use87481" xlink:href="#g87365" transform="translate(106.3)" height="35.433071" width="354.33069" y="0" x="0"/>
      <use id="use87483" xlink:href="#g87365" transform="translate(141.73)" height="35.433071" width="354.33069" y="0" x="0"/>
      <use id="use87485" xlink:href="#g87365" transform="translate(177.17)" height="35.433071" width="354.33069" y="0" x="0"/>
      <use id="use87487" xlink:href="#g87365" transform="translate(212.6)" height="35.433071" width="354.33069" y="0" x="0"/>
      <use id="use87489" xlink:href="#g87365" transform="translate(248.03)" height="35.433071" width="354.33069" y="0" x="0"/>
      <use id="use87491" xlink:href="#g87365" transform="translate(283.46)" height="35.433071" width="354.33069" y="0" x="0"/>
      <use id="use87493" xlink:href="#g87365" transform="translate(318.9)" height="35.433071" width="354.33069" y="0" x="0"/>
    </g>
  </g>
  <g id="layer3" transform="translate(0 15.609)">
    <g id="g87750" font-size="9px" font-family="Sans">
      <text id="text87618" style="word-spacing:0px;letter-spacing:0px" xml:space="preserve" line-height="125%" y="-4.1090202" x="-0.47574741">
        <tspan id="tspan87620" y="-4.1090202" x="-0.47574741" font-size="16px">0</tspan>
      </text>
      <text id="text87624" style="word-spacing:0px;letter-spacing:0px" xml:space="preserve" line-height="125%" y="-4.1090202" x="34.602993">
        <tspan id="tspan87626" y="-4.1090202" x="34.602993" font-size="16px">1</tspan>
      </text>
      <text id="text87628" style="word-spacing:0px;letter-spacing:0px" xml:space="preserve" line-height="125%" y="-4.1090202" x="68.688408">
        <tspan id="tspan87630" y="-4.1090202" x="68.688408" font-size="16px">2</tspan>
      </text>
      <text id="text87632" style="word-spacing:0px;letter-spacing:0px" xml:space="preserve" line-height="125%" y="-4.1090202" x="104.12148">
        <tspan id="tspan87664" y="-4.1090202" x="104.12148" font-size="16px">3</tspan>
      </text>
      <text id="text87636" style="word-spacing:0px;letter-spacing:0px" xml:space="preserve" line-height="125%" y="-4.1090202" x="139.55455">
        <tspan id="tspan87638" y="-4.1090202" x="139.55455" font-size="16px">4</tspan>
      </text>
      <text id="text87640" style="word-spacing:0px;letter-spacing:0px" xml:space="preserve" line-height="125%" y="-4.1090202" x="174.98763">
        <tspan id="tspan87642" y="-4.1090202" x="174.98763" font-size="16px">5</tspan>
      </text>
      <text id="text87644" style="word-spacing:0px;letter-spacing:0px" xml:space="preserve" line-height="125%" y="-4.1090202" x="210.42068">
        <tspan id="tspan87646" y="-4.1090202" x="210.42068" font-size="16px">6</tspan>
      </text>
      <text id="text87648" style="word-spacing:0px;letter-spacing:0px" xml:space="preserve" line-height="125%" y="-4.1090202" x="245.85376">
        <tspan id="tspan87650" y="-4.1090202" x="245.85376" font-size="16px">7</tspan>
      </text>
      <text id="text87652" style="word-spacing:0px;letter-spacing:0px" xml:space="preserve" line-height="125%" y="-4.1090202" x="281.28683">
        <tspan id="tspan87654" y="-4.1090202" x="281.28683" font-size="16px">8</tspan>
      </text>
      <text id="text87656" style="word-spacing:0px;letter-spacing:0px" xml:space="preserve" line-height="125%" y="-4.1090202" x="316.71991">
        <tspan id="tspan87658" y="-4.1090202" x="316.71991" font-size="16px">9</tspan>
      </text>
      <text id="text87660" style="word-spacing:0px;letter-spacing:0px" xml:space="preserve" line-height="125%" y="-4.1090202" x="352.15298">
        <tspan id="tspan87662" y="-4.1090202" x="352.15298" font-size="16px">10</tspan>
      </text>
    </g>
  </g>
  <metadata>
    <rdf:RDF>
      <cc:Work>
        <dc:format>image/svg+xml</dc:format>
        <dc:type rdf:resource="http://purl.org/dc/dcmitype/StillImage"/>
        <cc:license rdf:resource="http://creativecommons.org/licenses/publicdomain/"/>
        <dc:publisher>
          <cc:Agent rdf:about="http://openclipart.org/">
            <dc:title>Openclipart</dc:title>
          </cc:Agent>
        </dc:publisher>
      </cc:Work>
      <cc:License rdf:about="http://creativecommons.org/licenses/publicdomain/">
        <cc:permits rdf:resource="http://creativecommons.org/ns#Reproduction"/>
        <cc:permits rdf:resource="http://creativecommons.org/ns#Distribution"/>
        <cc:permits rdf:resource="http://creativecommons.org/ns#DerivativeWorks"/>
      </cc:License>
    </rdf:RDF>
  </metadata>
</svg>
