<?xml version="1.0"?>
<svg xmlns:rdf="http://www.w3.org/1999/02/22-rdf-syntax-ns#" xmlns="http://www.w3.org/2000/svg" xmlns:cc="http://creativecommons.org/ns#" xmlns:xlink="http://www.w3.org/1999/xlink" xmlns:dc="http://purl.org/dc/elements/1.1/" id="svg2" viewBox="0 0 256 256" version="1.1">
  <defs id="defs4">
    <linearGradient id="linearGradient2917">
      <stop id="stop2919" stop-color="#f2f2f2" offset="0"/>
      <stop id="stop2921" stop-color="#4d4d4d" offset="1"/>
    </linearGradient>
    <linearGradient id="linearGradient2980" y2="842.36" xlink:href="#linearGradient2917" gradientUnits="userSpaceOnUse" x2="135.07" y1="837.36" x1="135.07"/>
    <mask id="mask2976" maskUnits="userSpaceOnUse">
      <path id="path2978" d="m135 837.59c-2.4114 0-4.3671 1.8017-4.6875 4.125 0.56113-0.31308 1.239-0.64376 2-0.75 0.9367-0.13076 1.9598 0.11519 2.6562 1.125 0.29075 0.42159 0.64235 0.62844 1.0312 0.71875 0.3889 0.0903 0.82409 0.0355 1.2812-0.0937 0.86362-0.24419 1.7622-0.78112 2.4062-1.25-0.42637-2.1972-2.3637-3.875-4.6875-3.875z" fill="url(#linearGradient2980)" fill-rule="evenodd"/>
    </mask>
    <linearGradient id="linearGradient2989" y2="840.36" xlink:href="#linearGradient2917" gradientUnits="userSpaceOnUse" x2="139.07" gradientTransform="translate(29.931)" y1="840.36" x1="131.01"/>
    <mask id="mask2985" maskUnits="userSpaceOnUse">
      <path id="path2987" d="m164.93 837.59c-2.4114 0-4.3671 1.8017-4.6875 4.125 0.56113-0.31308 1.239-0.64376 2-0.75 0.9367-0.13076 1.9598 0.11519 2.6562 1.125 0.29075 0.42159 0.64235 0.62844 1.0312 0.71875 0.3889 0.0903 0.82409 0.0355 1.2812-0.0937 0.86362-0.24419 1.7622-0.78112 2.4062-1.25-0.42637-2.1972-2.3637-3.875-4.6875-3.875z" fill="url(#linearGradient2989)" fill-rule="evenodd"/>
    </mask>
    <radialGradient id="radialGradient4236" fy="109.03" gradientUnits="userSpaceOnUse" cy="106" cx="225" gradientTransform="matrix(1.0001 -3.3462e-7 2.7539e-8 1.0125 -.018540 -1.3257)" r="5">
      <stop id="stop2857" stop-color="#ffd5d5" offset="0"/>
      <stop id="stop2863" stop-color="#f00" offset=".58025"/>
      <stop id="stop2859" stop-color="#800000" offset="1"/>
    </radialGradient>
    <radialGradient id="radialGradient4238" fy="109.03" gradientUnits="userSpaceOnUse" cy="106" cx="225" gradientTransform="matrix(1.0001 -3.3462e-7 2.7539e-8 1.0125 -.018540 -1.3257)" r="5">
      <stop id="stop2875" stop-color="#fff6d5" offset="0"/>
      <stop id="stop2877" stop-color="#fc0" offset=".58025"/>
      <stop id="stop2879" stop-color="#a80" offset="1"/>
    </radialGradient>
    <radialGradient id="radialGradient4240" fy="109.03" gradientUnits="userSpaceOnUse" cy="106" cx="225" gradientTransform="matrix(1.0001 -3.3462e-7 2.7539e-8 1.0125 -.018540 -1.3257)" r="5">
      <stop id="stop2883" stop-color="#e5ffd5" offset="0"/>
      <stop id="stop2885" stop-color="#6f0" offset=".58025"/>
      <stop id="stop2887" stop-color="#338000" offset="1"/>
    </radialGradient>
    <filter id="filter4307" y="-.15" width="1.075" height="1.3" x="-.0375">
      <feGaussianBlur id="feGaussianBlur4309" stdDeviation="0.625"/>
    </filter>
    <linearGradient id="linearGradient4414" y2="822.13" gradientUnits="userSpaceOnUse" x2="20" gradientTransform="matrix(1.4167 0 0 1.4167 -8.625 -336.82)" y1="1037.4" x1="20">
      <stop id="stop2833" stop-color="#6f6f91" offset="0"/>
      <stop id="stop2835" stop-color="#dbdbe3" offset="1"/>
    </linearGradient>
    <filter id="filter4468">
      <feGaussianBlur id="feGaussianBlur4470" stdDeviation="3.8958344"/>
    </filter>
  </defs>
  <g id="layer1" transform="translate(0 -796.36)">
    <path id="path4450" filter="url(#filter4468)" d="m26.792 842.36h205.42c3.9242 0 7.0834 3.1592 7.0834 7.0834v155.83c0 3.9242-3.1592 7.0835-7.0834 7.0835h-205.42c-3.9242 0-7.0834-3.1593-7.0834-7.0835v-155.83c0-3.9242 3.1592-7.0834 7.0834-7.0834z" fill-rule="evenodd"/>
    <path id="path2839" d="m26.792 842.36h205.42c3.9242 0 7.0834 3.1592 7.0834 7.0834v155.83c0 3.9242-3.1592 7.0835-7.0834 7.0835h-205.42c-3.9242 0-7.0834-3.1593-7.0834-7.0835v-155.83c0-3.9242 3.1592-7.0834 7.0834-7.0834z" fill="url(#linearGradient4414)" fill-rule="evenodd"/>
    <g id="g4286" filter="url(#filter4307)" fill-rule="evenodd" transform="matrix(1.4167 0 0 1.4167 -93.625 -421.82)">
      <path id="path4244" d="m230 106c0 2.7614-2.2386 5-5 5s-5-2.2386-5-5 2.2386-5 5-5 5 2.2386 5 5z" fill="url(#radialGradient4236)" transform="translate(0 796.36)"/>
      <path id="path4252" d="m230 106c0 2.7614-2.2386 5-5 5s-5-2.2386-5-5 2.2386-5 5-5 5 2.2386 5 5z" fill="url(#radialGradient4238)" transform="translate(-15 796.36)"/>
      <path id="path4260" d="m230 106c0 2.7614-2.2386 5-5 5s-5-2.2386-5-5 2.2386-5 5-5 5 2.2386 5 5z" fill="url(#radialGradient4240)" transform="translate(-30 796.36)"/>
    </g>
    <g id="g4210" transform="matrix(1.4167 0 0 1.4167 -8.625 -336.82)">
      <path id="path4212" d="m230 106c0 2.7614-2.2386 5-5 5s-5-2.2386-5-5 2.2386-5 5-5 5 2.2386 5 5z" fill="url(#radialGradient4236)" transform="translate(-60 736.36)" fill-rule="evenodd"/>
      <g id="g4214">
        <g id="g4216" mask="url(#mask2985)">
          <path id="path4218" d="m135 837.59c-2.4114 0-4.3671 1.8017-4.6875 4.125 0.56113-0.31308 1.239-0.64376 2-0.75 0.9367-0.13076 1.9598 0.11519 2.6562 1.125 0.29075 0.42159 0.64235 0.62844 1.0312 0.71875 0.3889 0.0903 0.82409 0.0355 1.2812-0.0937 0.86362-0.24419 1.7622-0.78112 2.4062-1.25-0.42637-2.1972-2.3637-3.875-4.6875-3.875z" fill-rule="evenodd" mask="url(#mask2976)" transform="translate(29.931)" fill="#fff"/>
        </g>
      </g>
      <path id="path4220" d="m230 106c0 2.7614-2.2386 5-5 5s-5-2.2386-5-5 2.2386-5 5-5 5 2.2386 5 5z" fill="url(#radialGradient4238)" transform="translate(-75 736.36)" fill-rule="evenodd"/>
      <g id="g4222">
        <g id="g4224" mask="url(#mask2985)" transform="translate(-14.982)">
          <path id="path4226" d="m135 837.59c-2.4114 0-4.3671 1.8017-4.6875 4.125 0.56113-0.31308 1.239-0.64376 2-0.75 0.9367-0.13076 1.9598 0.11519 2.6562 1.125 0.29075 0.42159 0.64235 0.62844 1.0312 0.71875 0.3889 0.0903 0.82409 0.0355 1.2812-0.0937 0.86362-0.24419 1.7622-0.78112 2.4062-1.25-0.42637-2.1972-2.3637-3.875-4.6875-3.875z" fill-rule="evenodd" mask="url(#mask2976)" transform="translate(29.931)" fill="#fff"/>
        </g>
      </g>
      <path id="path4228" d="m230 106c0 2.7614-2.2386 5-5 5s-5-2.2386-5-5 2.2386-5 5-5 5 2.2386 5 5z" fill="url(#radialGradient4240)" transform="translate(-90 736.36)" fill-rule="evenodd"/>
      <g id="g4230">
        <g id="g4232" mask="url(#mask2985)" transform="translate(-29.919)">
          <path id="path4234" d="m135 837.59c-2.4114 0-4.3671 1.8017-4.6875 4.125 0.56113-0.31308 1.239-0.64376 2-0.75 0.9367-0.13076 1.9598 0.11519 2.6562 1.125 0.29075 0.42159 0.64235 0.62844 1.0312 0.71875 0.3889 0.0903 0.82409 0.0355 1.2812-0.0937 0.86362-0.24419 1.7622-0.78112 2.4062-1.25-0.42637-2.1972-2.3637-3.875-4.6875-3.875z" fill-rule="evenodd" mask="url(#mask2976)" transform="translate(29.931)" fill="#fff"/>
        </g>
      </g>
    </g>
    <rect id="rect4327" fill-rule="evenodd" height="134.74" width="204.77" y="870.54" x="27.437" fill="#fff"/>
  </g>
  <metadata>
    <rdf:RDF>
      <cc:Work>
        <dc:format>image/svg+xml</dc:format>
        <dc:type rdf:resource="http://purl.org/dc/dcmitype/StillImage"/>
        <cc:license rdf:resource="http://creativecommons.org/licenses/publicdomain/"/>
        <dc:publisher>
          <cc:Agent rdf:about="http://openclipart.org/">
            <dc:title>Openclipart</dc:title>
          </cc:Agent>
        </dc:publisher>
      </cc:Work>
      <cc:License rdf:about="http://creativecommons.org/licenses/publicdomain/">
        <cc:permits rdf:resource="http://creativecommons.org/ns#Reproduction"/>
        <cc:permits rdf:resource="http://creativecommons.org/ns#Distribution"/>
        <cc:permits rdf:resource="http://creativecommons.org/ns#DerivativeWorks"/>
      </cc:License>
    </rdf:RDF>
  </metadata>
</svg>
